<svg preserveAspectRatio="none" width="100%" height="100%" overflow="visible" style="display: block;" viewBox="0 0 240 240" fill="none" xmlns="http://www.w3.org/2000/svg">
<g id="Ellipse 30628 [Vectorized]" clip-path="url(#clip0_0_4)">
<path id="Vector" d="M112.282 0H127.686C128.309 0.496842 133.075 0.628406 134.337 0.772643C148.082 2.34321 161.992 6.47477 174.405 12.8229C202.116 26.967 223.297 51.2627 233.53 80.6433C236.848 90.2562 238.887 99.4573 239.646 109.586C239.712 110.488 239.449 111.586 240 112.302V127.919L239.96 128.099C239.613 129.709 239.386 133.515 239.159 135.356C238.575 139.898 237.743 144.406 236.67 148.859C229.334 178.194 211.231 203.697 185.958 220.299C173.399 228.58 159.398 234.431 144.681 237.551C141.695 238.191 132.082 239.381 130.234 240H109.308C106.83 239.213 103.017 238.88 100.432 238.465C45.8044 229.681 3.67573 183.091 0.064425 127.996C0.0429502 127.964 0.021475 127.932 0 127.901V112.31C0.552626 111.601 0.30848 110.846 0.371004 110.002C0.81663 103.985 1.76734 97.5162 3.1762 91.6664C11.6165 57.4141 34.5668 28.5417 66.0319 12.5917C77.9212 6.60574 91.2691 2.53207 104.473 0.947067C105.661 0.804516 111.6 0.499547 112.282 0Z" fill="var(--fill-0, #A5B0BF)"/>
<path id="Vector_2" d="M49.5534 190.969C10.1589 151.862 10.1574 88.1518 49.5499 49.0426C88.9425 9.9335 152.651 10.3951 191.473 50.071C230.295 89.7467 229.37 153.45 189.413 191.982C150.272 229.728 88.1433 229.278 49.5534 190.969Z" fill="var(--fill-0, #4B5869)"/>
<path id="Vector_3" d="M49.5534 190.969C80.0972 160.405 142.886 157.942 177.932 182.13C180.983 184.236 183.935 186.414 186.563 189.042C187.528 190.008 188.478 190.988 189.413 191.982C150.272 229.728 88.1433 229.278 49.5534 190.969Z" fill="var(--fill-0, #FEFEFE)"/>
<path id="Vector_4" d="M115.53 66.6423C141.14 64.6907 163.478 83.8825 165.407 109.495C167.336 135.107 148.124 157.428 122.51 159.333C96.9284 161.236 74.6426 142.054 72.7165 116.474C70.7904 90.895 89.9522 68.5919 115.53 66.6423Z" fill="var(--fill-0, #FEFEFE)"/>
</g>
<defs>
<clipPath id="clip0_0_4">
<rect width="240" height="240" fill="white"/>
</clipPath>
</defs>
</svg>
