<svg width="775" height="179" viewBox="0 0 775 179" fill="none" xmlns="http://www.w3.org/2000/svg">

<g id="&#236;&#131;&#136;&#234;&#178;&#168;&#235;&#147;&#163;&#235;&#139;&#164;">


<g id="-" opacity="0.9" clip-path="url(#clip0_3569_1610)">
<path id="Vector" d="M298.125 95.1721C297.615 105.755 300.229 113.213 305.966 117.548C311.704 121.883 319.545 124.051 329.49 124.051C332.678 124.051 336.088 123.668 339.722 122.903C343.356 122.138 346.639 120.895 349.571 119.174C352.504 117.453 354.958 115.222 356.935 112.48C358.911 109.739 359.899 106.328 359.899 102.248C359.899 98.4234 358.975 95.2359 357.126 92.6859C355.277 90.1359 352.855 88.0002 349.858 86.279C346.862 84.5577 343.388 83.0915 339.435 81.8802C335.483 80.669 331.403 79.4896 327.195 78.3421C324.135 77.5771 320.501 76.5252 316.294 75.1865C312.086 73.8477 308.006 71.8715 304.054 69.2577C300.101 66.6439 296.754 63.2333 294.013 59.0258C291.272 54.8183 289.901 49.4633 289.901 42.9608C289.901 36.8408 291.049 31.167 293.344 25.9395C295.639 20.712 298.954 16.2176 303.289 12.4563C307.624 8.69507 312.947 5.76256 319.258 3.65881C325.569 1.55505 332.741 0.503174 340.774 0.503174C347.914 0.503174 354.608 1.26818 360.855 2.79818C367.103 4.32818 372.521 6.81444 377.111 10.2569C381.701 13.6995 385.272 18.1938 387.822 23.7401C390.372 29.2864 391.519 36.0758 391.264 44.1083H368.314C368.186 35.5658 365.828 29.4139 361.238 25.6526C356.648 21.8913 349.699 20.0107 340.391 20.0107C338.734 20.0107 336.439 20.202 333.506 20.5845C330.574 20.967 327.641 21.8595 324.709 23.262C321.776 24.6645 319.226 26.6726 317.059 29.2864C314.891 31.9001 313.808 35.502 313.808 40.092C313.808 43.407 314.573 46.1483 316.103 48.3158C317.633 50.4833 319.704 52.332 322.318 53.862C324.932 55.392 327.96 56.667 331.403 57.687C334.845 58.7071 338.479 59.6633 342.304 60.5558C347.149 61.8308 352.026 63.2333 356.935 64.7633C361.843 66.2933 366.306 68.4289 370.322 71.1702C374.338 73.9115 377.59 77.5133 380.076 81.9759C382.562 86.4384 383.805 92.2396 383.805 99.3796C383.805 104.735 382.785 110.026 380.745 115.253C378.705 120.481 375.422 125.198 370.896 129.406C366.37 133.613 360.505 137.024 353.301 139.638C346.097 142.252 337.331 143.559 327.004 143.559C318.971 143.559 311.704 142.634 305.201 140.785C298.699 138.937 293.184 136.068 288.658 132.179C284.132 128.29 280.689 123.286 278.331 117.166C275.972 111.046 274.92 103.715 275.175 95.1721H298.125Z" fill="#18181A"/>
<path id="Vector_2" d="M413.063 3.75562H434.865L418.8 81.0208L419.183 81.4033L463.936 41.432H491.476L447.87 77.7695L471.968 140.308H447.87L430.467 92.3046L413.637 106.648L406.56 140.308H384.758L413.063 3.75562Z" fill="#18181A"/>
<path id="Vector_3" d="M564.413 109.706C560.971 121.308 555.17 129.755 547.01 135.047C538.85 140.338 528.777 142.983 516.792 142.983C510.544 142.983 504.775 141.995 499.484 140.019C494.193 138.043 489.634 135.174 485.809 131.413C481.984 127.652 478.988 123.125 476.821 117.834C474.653 112.543 473.569 106.518 473.569 99.7609C473.569 92.1108 474.781 84.6521 477.203 77.3845C479.626 70.117 483.164 63.6145 487.818 57.877C492.471 52.1395 498.209 47.5176 505.03 44.0113C511.851 40.5051 519.661 38.752 528.458 38.752C537.256 38.752 544.396 40.2182 549.878 43.1507C555.361 46.0832 559.632 49.7807 562.692 54.2432C565.752 58.7057 567.824 63.6145 568.908 68.9695C569.991 74.3245 570.533 79.4246 570.533 84.2696C570.533 86.6921 570.406 88.9233 570.151 90.9633C569.896 93.0033 569.641 94.8521 569.386 96.5096H495.754C495.627 97.1471 495.531 97.7208 495.468 98.2308C495.404 98.7408 495.372 99.2509 495.372 99.7609V102.821C495.372 109.706 497.189 115.252 500.823 119.46C504.456 123.667 510.481 125.771 518.896 125.771C524.761 125.771 529.797 124.432 534.005 121.755C538.212 119.077 541.081 115.061 542.611 109.706H564.413ZM548.54 82.1658C548.667 81.5283 548.731 80.9864 548.731 80.5402V76.0458C548.731 70.1808 546.882 65.3676 543.185 61.6064C539.487 57.8451 534.387 55.9645 527.884 55.9645C519.724 55.9645 513.222 58.4189 508.377 63.3276C503.532 68.2364 500.026 74.5158 497.858 82.1658H548.54Z" fill="#18181A"/>
<path id="Vector_4" d="M663.733 109.706C660.29 121.308 654.489 129.755 646.329 135.047C638.169 140.338 628.096 142.983 616.111 142.983C609.864 142.983 604.094 141.995 598.803 140.019C593.512 138.043 588.954 135.174 585.129 131.413C581.304 127.652 578.307 123.125 576.14 117.834C573.972 112.543 572.889 106.518 572.889 99.7609C572.889 92.1108 574.1 84.6521 576.522 77.3845C578.945 70.117 582.483 63.6145 587.137 57.877C591.791 52.1395 597.528 47.5176 604.349 44.0113C611.171 40.5051 618.98 38.752 627.778 38.752C636.575 38.752 643.715 40.2182 649.198 43.1507C654.68 46.0832 658.951 49.7807 662.011 54.2432C665.071 58.7057 667.143 63.6145 668.227 68.9695C669.311 74.3245 669.853 79.4246 669.853 84.2696C669.853 86.6921 669.725 88.9233 669.47 90.9633C669.215 93.0033 668.96 94.8521 668.705 96.5096H595.074C594.946 97.1471 594.851 97.7208 594.787 98.2308C594.723 98.7408 594.691 99.2509 594.691 99.7609V102.821C594.691 109.706 596.508 115.252 600.142 119.46C603.776 123.667 609.8 125.771 618.215 125.771C624.08 125.771 629.116 124.432 633.324 121.755C637.531 119.077 640.4 115.061 641.93 109.706H663.733ZM647.859 82.1658C647.986 81.5283 648.05 80.9864 648.05 80.5402V76.0458C648.05 70.1808 646.201 65.3676 642.504 61.6064C638.806 57.8451 633.706 55.9645 627.204 55.9645C619.044 55.9645 612.541 58.4189 607.696 63.3276C602.851 68.2364 599.345 74.5158 597.177 82.1658H647.859Z" fill="#18181A"/>
<path id="Vector_5" d="M686.296 41.4295H707.908L705.039 54.052L705.422 54.4345C708.864 49.462 713.39 45.6051 719 42.8638C724.61 40.1226 730.475 38.752 736.595 38.752C742.715 38.752 748.134 39.772 752.852 41.812C757.569 43.852 761.49 46.6888 764.614 50.3226C767.737 53.9564 770.096 58.2914 771.69 63.3276C773.284 68.3639 774.08 73.8145 774.08 79.6796C774.08 87.2021 773.06 94.7565 771.02 102.343C768.98 109.929 765.857 116.718 761.649 122.711C757.442 128.703 752.15 133.58 745.775 137.342C739.4 141.103 731.942 142.983 723.399 142.983C716.132 142.983 709.693 141.74 704.083 139.254C698.473 136.768 694.138 132.018 691.078 125.006H690.695L679.985 176.835H658.183L686.296 41.4295ZM696.624 100.335C696.624 103.905 697.038 107.22 697.867 110.28C698.696 113.34 699.971 116.017 701.692 118.312C703.413 120.607 705.676 122.424 708.481 123.763C711.287 125.102 714.601 125.771 718.427 125.771C724.292 125.771 729.36 124.464 733.631 121.85C737.902 119.237 741.408 115.826 744.15 111.618C746.891 107.411 748.931 102.693 750.27 97.4658C751.608 92.2383 752.278 87.0108 752.278 81.7833C752.278 78.2133 751.863 74.8664 751.035 71.7427C750.206 68.6189 748.899 65.8776 747.114 63.5189C745.329 61.1601 743.066 59.3114 740.325 57.9726C737.583 56.6339 734.3 55.9645 730.475 55.9645C724.61 55.9645 719.542 57.3032 715.271 59.9808C711 62.6583 707.493 66.1326 704.752 70.4039C702.011 74.6752 699.971 79.4564 698.632 84.7477C697.293 90.039 696.624 95.2346 696.624 100.335Z" fill="#18181A"/>
<path id="Vector_6" d="M228.149 129.254C243.906 85.9627 206.434 32.5799 144.453 10.0205C82.4714 -12.5388 19.4522 4.26804 3.69536 47.5596C-12.0615 90.8513 25.4108 144.234 87.3921 166.793C149.373 189.353 212.393 172.546 228.149 129.254Z" fill="#18181A"/>
<path id="Vector_7" d="M144.921 148.892C152.501 110.731 168.152 76.733 188.985 53.1646C202.609 37.7498 217.144 28.2957 231.213 25.4333V0.302979C210.195 3.05061 189.189 15.5074 170.415 36.7489C157.129 51.7812 145.731 70.3644 136.799 91.2681C135.932 88.3292 134.995 85.4859 133.969 82.7766" fill="#18181A"/>
<g id="Clip path group">
<mask id="mask0_3569_1610" style="mask-type:luminance" maskUnits="userSpaceOnUse" x="6" y="0" width="228" height="179">
<g id="clippath">
<path id="Vector_8" d="M233.936 0C212.012 1.989 189.999 14.5988 170.415 36.7583C157.13 51.7906 145.731 70.3738 136.8 91.2775C135.933 88.3386 134.996 85.4953 133.969 82.7859C122.826 53.4099 106.334 48.4119 97.4978 48.0485C90.2749 47.768 77.7098 50.1331 65.9861 66.4787C65.0043 63.7629 63.9333 61.0535 62.7603 58.3633C48.9648 26.7814 26.5949 6.29852 6.08008 4.33501V29.4079C15.3557 31.9962 30.0629 45.4092 40.0525 68.2828C46.0132 81.9253 48.9903 96.3137 48.2317 107.751C48.1616 108.764 48.0659 109.746 47.9448 110.689H73.5532C75.4785 103.141 77.8819 96.2309 80.6869 90.334C86.469 78.1832 92.6783 72.8091 96.3439 72.8091C96.3949 72.8091 96.4459 72.8091 96.4905 72.8091C100.131 72.9557 105.97 78.8143 110.809 91.5707C116.534 106.66 119.307 127.621 118.427 149.073C118.013 159.178 116.789 169.091 114.902 178.284H140.867C141.619 168.619 142.964 158.783 144.928 148.895C152.508 110.734 168.158 76.7361 188.992 53.1676C203.495 36.7583 219.037 27.1002 233.942 24.9646V0H233.936Z" fill="white"/>
</g>
</mask>
<g mask="url(#mask0_3569_1610)">
<g id="Group">
<path id="Vector_9" d="M228.059 129.257C243.816 85.9651 206.343 32.5823 144.362 10.023C82.3806 -12.5364 19.3614 4.27047 3.60454 47.5621C-12.1523 90.8537 25.32 144.236 87.3013 166.796C149.283 189.355 212.302 172.548 228.059 129.257Z" fill="white"/>
</g>
</g>
</g>
</g>
</g>
<defs>
<clipPath id="clip0_3569_1610">
<rect width="774.086" height="178.29" fill="white"/>
</clipPath>
</defs>
</svg>
